<?xml version="1.0" encoding="UTF-8"?>
<svg version="1.1" xmlns="http://www.w3.org/2000/svg" width="666" height="374">
<path d="M0 0 C2.09375 1.64453125 2.09375 1.64453125 3.5 3.1875 C3.5 4.1775 3.5 5.1675 3.5 6.1875 C4.985 6.6825 4.985 6.6825 6.5 7.1875 C12.31339091 12.71763984 18.10039511 20.1397719 19.5 28.1875 C17.75 31.0625 17.75 31.0625 15.5 33.1875 C14.84 33.1875 14.18 33.1875 13.5 33.1875 C13.2421875 33.75984375 12.984375 34.3321875 12.71875 34.921875 C11.38634058 37.39878995 9.84943882 39.3216166 8 41.4375 C7.3915625 42.14390625 6.783125 42.8503125 6.15625 43.578125 C4.5 45.1875 4.5 45.1875 2.5 45.1875 C2.29246094 44.65382812 2.08492188 44.12015625 1.87109375 43.5703125 C-0.79078227 37.13280479 -4.35192377 31.76086309 -8.5 26.1875 C-9.11875 25.300625 -9.7375 24.41375 -10.375 23.5 C-17.7674682 15.4552552 -26.38601461 11.7093342 -36.5 8.1875 C-36.83 8.1875 -37.16 8.1875 -37.5 8.1875 C-37.83 40.5275 -38.16 72.8675 -38.5 106.1875 C-42.359869 107.15246725 -45.47754322 107.35386896 -49.4375 107.375 C-51.24541016 107.39626953 -51.24541016 107.39626953 -53.08984375 107.41796875 C-56.5 107.1875 -56.5 107.1875 -61.5 105.1875 C-61.83 73.1775 -62.16 41.1675 -62.5 8.1875 C-65.8 9.5075 -69.1 10.8275 -72.5 12.1875 C-73.94375 12.661875 -75.3875 13.13625 -76.875 13.625 C-80.84756545 15.33731269 -82.0850358 16.68996564 -84.5 20.1875 C-87 22.6875 -87 22.6875 -89.5 25.1875 C-92.85827636 28.93443221 -92.85827636 28.93443221 -95.5 33.1875 C-96.16 33.1875 -96.82 33.1875 -97.5 33.1875 C-97.70496094 33.81398437 -97.90992188 34.44046875 -98.12109375 35.0859375 C-98.39050781 35.90320313 -98.65992188 36.72046875 -98.9375 37.5625 C-99.20433594 38.37460938 -99.47117187 39.18671875 -99.74609375 40.0234375 C-100.5 42.1875 -100.5 42.1875 -101.5 44.1875 C-104.80949515 42.75338544 -106.89664885 40.97776636 -109.375 38.375 C-112.59720225 35.06228645 -115.89330023 32.07285982 -119.5 29.1875 C-117.33726418 18.6141249 -108.73672872 10.65144155 -101.5 3.1875 C-100.98824219 2.64738281 -100.47648437 2.10726562 -99.94921875 1.55078125 C-72.92426824 -23.87161155 -28.42024029 -20.99272835 0 0 Z " fill="#4FCB64" transform="translate(388.5,58.8125)"/>
<path d="M0 0 C6.00227291 0.88922562 10.0014757 5.79102706 14 10 C14.53625 10.7425 15.0725 11.485 15.625 12.25 C16.97372834 14.29712875 16.97372834 14.29712875 20 15 C20.02578125 16.0415625 20.0515625 17.083125 20.078125 18.15625 C20.6572319 34.73391635 22.73763347 49.09396564 35.25 61.171875 C37 63 37 63 37 65 C37.59554687 65.27199219 38.19109375 65.54398437 38.8046875 65.82421875 C40.94456824 66.97031146 42.34581513 68.18372931 44.125 69.8125 C53.90314298 77.23732126 69.14391461 79.54090906 81 78 C94.89000756 75.6501515 103.63739385 70.64896863 113.4375 60.4375 C116 58 116 58 120 58 C121.74609375 59.5390625 121.74609375 59.5390625 123.4375 61.625 C124.33275391 62.72134766 124.33275391 62.72134766 125.24609375 63.83984375 C125.82488281 64.55269531 126.40367187 65.26554687 127 66 C127.52722656 66.55816406 128.05445313 67.11632812 128.59765625 67.69140625 C130.7419341 69.97903416 131.96934058 71.37148184 132.125 74.5625 C127.79495699 83.94425986 114.02410722 92.12540818 104.71875 95.93359375 C103.28620014 96.42035805 101.8426314 96.87629681 100.38842773 97.29394531 C98.86314707 97.74484091 97.34795756 98.23254971 95.84985352 98.7668457 C88.70076258 101.2212166 81.95550105 101.53886858 74.4375 101.5 C73.20547852 101.49645508 71.97345703 101.49291016 70.70410156 101.48925781 C60.72720178 101.30871596 52.20553881 99.77186566 43 96 C42.20335937 95.68933594 41.40671875 95.37867188 40.5859375 95.05859375 C26.27468493 88.70120466 14.38696559 76.54277024 7 63 C6.13001519 61.72572813 5.2551819 60.45474985 4.375 59.1875 C-5.59065427 43.30674771 -4.94294569 19.72886529 -1 2 C-0.67 1.34 -0.34 0.68 0 0 Z " fill="#206C9F" transform="translate(265,96)"/>
<path d="M0 0 C1.65 0.33 3.3 0.66 5 1 C5.66 3.97 6.32 6.94 7 10 C8.32 10.33 9.64 10.66 11 11 C11.39638672 10.34805664 11.79277344 9.69611328 12.20117188 9.02441406 C14 7 14 7 16.22070312 6.54589844 C17.06568359 6.5668457 17.91066406 6.58779297 18.78125 6.609375 C20.16763672 6.62871094 20.16763672 6.62871094 21.58203125 6.6484375 C22.54496094 6.68195313 23.50789063 6.71546875 24.5 6.75 C25.46292969 6.76804688 26.42585938 6.78609375 27.41796875 6.8046875 C29.20527768 6.83958614 30.99245813 6.88268657 32.77929688 6.93652344 C35.18432493 7.00526874 37.56950986 7.0230163 39.97265625 6.89453125 C41.98053218 6.81571743 43.99285224 6.90442154 46 7 C47.99825961 9.99738941 48.27550398 10.63347508 48.25 14 C48.25773437 15.0209375 48.25773437 15.0209375 48.265625 16.0625 C48 18 48 18 46 21 C39.10583153 21.65658747 39.10583153 21.65658747 36 19.8125 C34.69105832 17.44004321 34.78379825 15.6664882 35 13 C33.68 13 32.36 13 31 13 C31 14.32 31 15.64 31 17 C31.66 17 32.32 17 33 17 C33 18.32 33 19.64 33 21 C30.36 21 27.72 21 25 21 C24.9175 21.78375 24.835 22.5675 24.75 23.375 C24 26 24 26 22.3125 27.3125 C19.39788311 28.17900772 17.02681671 28.25760142 14 28 C13.01 27.34 12.02 26.68 11 26 C11 24.68 11 23.36 11 22 C8.36 21.67 5.72 21.34 3 21 C3 19.35 3 17.7 3 16 C1.68 16.33 0.36 16.66 -1 17 C-0.34 17.33 0.32 17.66 1 18 C0.34 18.99 -0.32 19.98 -1 21 C-2.9453125 21.29296875 -2.9453125 21.29296875 -5.125 21.1875 C-6.40375 21.125625 -7.6825 21.06375 -9 21 C-9 20.01 -9 19.02 -9 18 C-8.57074219 17.60167969 -8.14148438 17.20335937 -7.69921875 16.79296875 C-5.13444089 14.0866859 -4.1106828 10.74547229 -2.8125 7.3125 C-2.53986328 6.61060547 -2.26722656 5.90871094 -1.98632812 5.18554688 C-1.31714455 3.45975765 -0.65761525 1.73023041 0 0 Z M0 9 C0 9.66 0 10.32 0 11 C0.66 11 1.32 11 2 11 C2 10.34 2 9.68 2 9 C1.34 9 0.68 9 0 9 Z M41 10 C39.73527935 11.05429686 39.73527935 11.05429686 39.75 13.4375 C39.8325 14.283125 39.915 15.12875 40 16 C41.485 16.99 41.485 16.99 43 18 C44.35618499 16.87465895 44.35618499 16.87465895 44.0625 13.9375 C44.041875 12.968125 44.02125 11.99875 44 11 C43.01 10.67 42.02 10.34 41 10 Z M17 11 C18 15 18 15 18 15 Z M24 11 C23.32041397 13.39719432 23.32041397 13.39719432 23 16 C23.66 16.66 24.32 17.32 25 18 C25 15.69 25 13.38 25 11 C24.67 11 24.34 11 24 11 Z M11 14 C10.67 14.66 10.34 15.32 10 16 C10.66 16 11.32 16 12 16 C11.67 15.34 11.34 14.68 11 14 Z M16 23 C17.485 23.99 17.485 23.99 19 25 C19.33 24.34 19.66 23.68 20 23 C18.68 23 17.36 23 16 23 Z " fill="#3787A6" transform="translate(282,229)"/>
<path d="M0 0 C0.66 0 1.32 0 2 0 C9.66666667 0 17.33333333 0 25 0 C28.0078125 5.6015625 28.0078125 5.6015625 27.9375 9.1875 C27 12 27 12 25.1875 13.9375 C23 15 23 15 20.75 14.6875 C20.1725 14.460625 19.595 14.23375 19 14 C19 15.32 19 16.64 19 18 C19.99 18 20.98 18 22 18 C22 18.66 22 19.32 22 20 C14.25 21.125 14.25 21.125 12 20 C12 19.34 12 18.68 12 18 C12.66 18 13.32 18 14 18 C13.67 16.02 13.34 14.04 13 12 C12.34 12 11.68 12 11 12 C11 12.66 11 13.32 11 14 C7.33333333 14 3.66666667 14 0 14 C-1.08474609 14.05220703 -1.08474609 14.05220703 -2.19140625 14.10546875 C-2.97386719 14.13253906 -3.75632812 14.15960938 -4.5625 14.1875 C-5.34753906 14.22230469 -6.13257813 14.25710937 -6.94140625 14.29296875 C-7.62074219 14.19628906 -8.30007813 14.09960938 -9 14 C-11.47342266 10.28986601 -11.38503486 8.38939738 -11 4 C-8.82223531 -1.30830143 -5.04642678 -0.32040805 0 0 Z M-5 3 C-6.35618499 4.12534105 -6.35618499 4.12534105 -6.0625 7.0625 C-6.041875 8.031875 -6.02125 9.00125 -6 10 C-4.68 10 -3.36 10 -2 10 C-2 8.02 -2 6.04 -2 4 C-2.99 3.67 -3.98 3.34 -5 3 Z M21 3 C18.66608797 5.78114056 18.66608797 5.78114056 19.375 8.6875 C19.58125 9.450625 19.7875 10.21375 20 11 C20.99 11 21.98 11 23 11 C23 8.69 23 6.38 23 4 C22.34 3.67 21.68 3.34 21 3 Z M3 4 C3 6.31 3 8.62 3 11 C3.33 11 3.66 11 4 11 C4 8.69 4 6.38 4 4 C3.67 4 3.34 4 3 4 Z M13 4 C13 4.66 13 5.32 13 6 C11.68 5.67 10.36 5.34 9 5 C9 6.98 9 8.96 9 11 C9.66 11 10.32 11 11 11 C11 10.34 11 9.68 11 9 C11.99 9 12.98 9 14 9 C14 7.35 14 5.7 14 4 C13.67 4 13.34 4 13 4 Z " fill="#3283A0" transform="translate(367,236)"/>
<path d="M0 0 C1.33471135 0.32777203 2.66776991 0.66228433 4 1 C5.58211573 1.06548492 7.16670081 1.08578381 8.75 1.0625 C9.94882812 1.04896484 9.94882812 1.04896484 11.171875 1.03515625 C12.07679688 1.01775391 12.07679688 1.01775391 13 1 C13.62457273 4.43515002 14 7.49064814 14 11 C14.99 11.33 15.98 11.66 17 12 C17 12.99 17 13.98 17 15 C12.2250791 15.95498418 7.84860624 16.24243031 3 16 C1 14 1 14 0.8125 11.625 C0.97991307 9.28121696 1.33443633 7.24627738 2 5 C-1.44216672 7.6598561 -1.99504674 10.90288286 -3 15 C-4.32 15.33 -5.64 15.66 -7 16 C-7.33 12.37 -7.66 8.74 -8 5 C-8.99 5.99 -9.98 6.98 -11 8 C-13.1875 9.1875 -13.1875 9.1875 -15 10 C-13.68 10 -12.36 10 -11 10 C-10.01 10.33 -9.02 10.66 -8 11 C-8.5625 12.9375 -8.5625 12.9375 -10 15 C-16.14634146 16.42682927 -16.14634146 16.42682927 -19 15 C-20.66821323 15.32550502 -22.33499557 15.65846063 -24 16 C-25 15 -25 15 -25.09765625 11.83984375 C-25.08025391 9.90818359 -25.08025391 9.90818359 -25.0625 7.9375 C-25.05347656 6.64714844 -25.04445313 5.35679687 -25.03515625 4.02734375 C-25.02355469 3.02832031 -25.01195312 2.02929688 -25 1 C-23.68 1 -22.36 1 -21 1 C-21.33 4.63 -21.66 8.26 -22 12 C-21.34 12 -20.68 12 -20 12 C-20.0928125 10.1128125 -20.0928125 10.1128125 -20.1875 8.1875 C-20.30877392 5.7215969 -20.22852429 4.3992506 -18.99609375 2.24609375 C-15.82439951 0.26611242 -12.4853446 0.7290634 -8.875 0.875 C-6.24688858 0.95270069 -3.63006745 0.99411618 -1 1 C-0.67 0.67 -0.34 0.34 0 0 Z M7 4 C7 4.66 7 5.32 7 6 C7.66 6 8.32 6 9 6 C9 5.34 9 4.68 9 4 C8.34 4 7.68 4 7 4 Z M7 9 C6.67 9.66 6.34 10.32 6 11 C6.66 11 7.32 11 8 11 C7.67 10.34 7.34 9.68 7 9 Z " fill="#429348" transform="translate(305,208)"/>
<path d="M0 0 C0.86882812 0.00386719 1.73765625 0.00773438 2.6328125 0.01171875 C4.875 0.3125 4.875 0.3125 6.875 2.3125 C7 5.4375 7 5.4375 6.875 8.3125 C5.555 8.3125 4.235 8.3125 2.875 8.3125 C2.545 7.3225 2.215 6.3325 1.875 5.3125 C-0.105 5.3125 -2.085 5.3125 -4.125 5.3125 C-6.15297315 9.36844629 -6.36099782 11.93896926 -5.125 16.3125 C-3.95615894 18.31734776 -3.95615894 18.31734776 -2.125 19.3125 C-0.17500871 19.11778889 -0.17500871 19.11778889 1.875 18.3125 C3.54019519 17.97189189 5.20657466 17.63691604 6.875 17.3125 C6.854375 16.36375 6.83375 15.415 6.8125 14.4375 C6.875 11.3125 6.875 11.3125 7.875 9.3125 C9.195 9.3125 10.515 9.3125 11.875 9.3125 C11.545 12.6125 11.215 15.9125 10.875 19.3125 C11.535 18.9825 12.195 18.6525 12.875 18.3125 C13.019375 17.178125 13.16375 16.04375 13.3125 14.875 C13.498125 13.699375 13.68375 12.52375 13.875 11.3125 C17.54365241 8.86673173 19.54700343 9.07642746 23.875 9.3125 C24.535 9.6425 25.195 9.9725 25.875 10.3125 C25.75 12.0625 25.75 12.0625 24.875 14.3125 C21.8125 16.5625 21.8125 16.5625 18.875 18.3125 C19.865 18.3125 20.855 18.3125 21.875 18.3125 C22.865 18.3125 23.855 18.3125 24.875 18.3125 C24.38 20.7875 24.38 20.7875 23.875 23.3125 C17.25 24.4375 17.25 24.4375 13.875 23.3125 C12.864375 23.498125 11.85375 23.68375 10.8125 23.875 C9.843125 24.019375 8.87375 24.16375 7.875 24.3125 C7.215 23.6525 6.555 22.9925 5.875 22.3125 C5.17375 22.6425 4.4725 22.9725 3.75 23.3125 C0.42664959 24.46844797 -1.63084045 24.81166565 -5.125 24.3125 C-8.55139416 22.24072679 -10.83144365 20.19316905 -12.125 16.3125 C-12.47031267 10.96015358 -12.60074585 7.65718232 -9.125 3.3125 C-6.06374864 0.54534266 -4.10857969 -0.07971871 0 0 Z " fill="#347A38" transform="translate(364.125,199.6875)"/>
<path d="M0 0 C0.33 0 0.66 0 1 0 C1 32.01 1 64.02 1 97 C-2.859869 97.96496725 -5.97754322 98.16636896 -9.9375 98.1875 C-11.74541016 98.20876953 -11.74541016 98.20876953 -13.58984375 98.23046875 C-17 98 -17 98 -22 96 C-22 71.91 -22 47.82 -22 23 C-21.67 23 -21.34 23 -21 23 C-20.68279752 29.4507988 -20.38167014 35.90221902 -20.09057617 42.35424805 C-19.99024449 44.53898235 -19.88652542 46.72356432 -19.77905273 48.90795898 C-19.07098928 63.3584371 -19.01881484 77.56201737 -20 92 C-18.68 92 -17.36 92 -16 92 C-16 92.66 -16 93.32 -16 94 C-14.39482903 93.91266424 -12.79078338 93.80447776 -11.1875 93.6875 C-10.29417969 93.62949219 -9.40085937 93.57148438 -8.48046875 93.51171875 C-6.02397353 93.14639905 -6.02397353 93.14639905 -4.21875 91.9375 C-2.32914737 88.93351632 -2.42526633 85.76314962 -2.3125 82.3125 C-2.27833984 81.61060547 -2.24417969 80.90871094 -2.20898438 80.18554688 C-2.12670053 78.45758613 -2.0616676 76.72881928 -2 75 C-3.485 74.505 -3.485 74.505 -5 74 C-3.125 69.125 -3.125 69.125 -2 68 C-1.95372155 66.33397597 -1.96213099 64.66623639 -2 63 C-2.03786901 61.33376361 -2.04627845 59.66602403 -2 58 C-1.67 57.67 -1.34 57.34 -1 57 C-0.87677242 55.22096643 -0.82210981 53.43713797 -0.79467773 51.65405273 C-0.77473251 50.5129454 -0.75478729 49.37183807 -0.73423767 48.19615173 C-0.70916893 46.33368553 -0.70916893 46.33368553 -0.68359375 44.43359375 C-0.66281265 43.16983414 -0.64203156 41.90607452 -0.62062073 40.60401917 C-0.56616286 37.23881367 -0.5159572 33.87359827 -0.46777344 30.50830078 C-0.41760241 27.07644099 -0.36189345 23.64467169 -0.30664062 20.21289062 C-0.19929809 13.47533239 -0.09755675 6.73770664 0 0 Z " fill="#157225" transform="translate(349,68)"/>
<path d="M0 0 C0.66 0.66 1.32 1.32 2 2 C1.625 5.625 1.625 5.625 1 9 C3.31 9 5.62 9 8 9 C8 10.32 8 11.64 8 13 C7.01 13 6.02 13 5 13 C5 14.65 5 16.3 5 18 C6.98 18.66 8.96 19.32 11 20 C11 20.99 11 21.98 11 23 C5.48231511 24.12861736 5.48231511 24.12861736 3.125 23.5 C0.78815159 22.95015331 -0.64586873 23.18462284 -3 23.5625 C-5.65278098 23.94782014 -6.84478895 24.05173702 -9.4375 23.1875 C-11 22 -11 22 -12 20 C-12.23333333 13.46666667 -12.23333333 13.46666667 -11 11 C-10.34 11 -9.68 11 -9 11 C-9.0825 9.741875 -9.165 8.48375 -9.25 7.1875 C-9.24309844 3.28811667 -9.24309844 3.28811667 -7.3125 1 C-4.62849816 -0.16064945 -2.89460562 -0.38086916 0 0 Z M-4 4 C-4.33 5.32 -4.66 6.64 -5 8 C-4.34 7.67 -3.68 7.34 -3 7 C-3.33 6.01 -3.66 5.02 -4 4 Z M-1 12 C-0.34 12.66 0.32 13.32 1 14 C1 13.34 1 12.68 1 12 C0.34 12 -0.32 12 -1 12 Z M-7 14 C-6.67 15.65 -6.34 17.3 -6 19 C-4.68 19 -3.36 19 -2 19 C-3.3553326 16.46326712 -3.3553326 16.46326712 -5 14 C-5.66 14 -6.32 14 -7 14 Z " fill="#429243" transform="translate(338,200)"/>
<path d="M0 0 C1.98 0.495 1.98 0.495 4 1 C3.85856168 3.7294586 3.71200471 6.45848123 3.5625 9.1875 C3.50352539 10.34088867 3.50352539 10.34088867 3.44335938 11.51757812 C3.22492966 15.43251075 2.91307892 19.17120688 2 23 C2.99 23 3.98 23 5 23 C4.938125 21.906875 4.87625 20.81375 4.8125 19.6875 C5 16 5 16 6.125 14.125 C9.45093006 12.12944197 12.54824346 11.64687003 16.3125 12.5625 C18 14 18 14 18.875 16.8125 C19.04572115 21.16588933 18.22104787 23.59109861 15.375 26.875 C12.3646367 28.30096156 10.18880543 27.82078767 6.97265625 27.26171875 C4.47924238 26.93090939 2.40743461 27.32290902 0 28 C-1.37365621 25.25268757 -1.0128639 23.18332936 -0.87890625 20.1171875 C-0.80639648 18.36728516 -0.80639648 18.36728516 -0.73242188 16.58203125 C-0.67634766 15.35871094 -0.62027344 14.13539063 -0.5625 12.875 C-0.48418945 11.02841797 -0.48418945 11.02841797 -0.40429688 9.14453125 C-0.2743256 6.09611412 -0.13934981 3.0480005 0 0 Z M11 16 C10.34 16.66 9.68 17.32 9 18 C9.32041397 20.60280568 9.32041397 20.60280568 10 23 C10.99 23.33 11.98 23.66 13 24 C13 21.36 13 18.72 13 16 C12.34 16 11.68 16 11 16 Z " fill="#38793C" transform="translate(391,196)"/>
<path d="M0 0 C8 0 16 0 24 0 C24.65097656 -0.03480469 25.30195313 -0.06960937 25.97265625 -0.10546875 C27.98053218 -0.18428257 29.99285224 -0.09557846 32 0 C33.99825961 2.99738941 34.27550398 3.63347508 34.25 7 C34.25773437 8.0209375 34.25773437 8.0209375 34.265625 9.0625 C34 11 34 11 32 14 C25.10583153 14.65658747 25.10583153 14.65658747 22 12.8125 C20.69105832 10.44004321 20.78379825 8.6664882 21 6 C19.35 6.33 17.7 6.66 16 7 C16.66 5.02 17.32 3.04 18 1 C15.96116112 1.66423207 15.96116112 1.66423207 14 3 C13.3006486 5.18541552 13.3006486 5.18541552 13.25 7.625 C13.19328125 8.44226563 13.1365625 9.25953125 13.078125 10.1015625 C13.05234375 10.72804687 13.0265625 11.35453125 13 12 C10.69 12 8.38 12 6 12 C6 11.34 6 10.68 6 10 C7.32 9.34 8.64 8.68 10 8 C9.67 8 9.34 8 9 8 C8.67 5.69 8.34 3.38 8 1 C5.36 1 2.72 1 0 1 C0 0.67 0 0.34 0 0 Z M27 3 C25.73527935 4.05429686 25.73527935 4.05429686 25.75 6.4375 C25.8325 7.283125 25.915 8.12875 26 9 C27.485 9.99 27.485 9.99 29 11 C30.35618499 9.87465895 30.35618499 9.87465895 30.0625 6.9375 C30.041875 5.968125 30.02125 4.99875 30 4 C29.01 3.67 28.02 3.34 27 3 Z " fill="#2D6476" transform="translate(296,236)"/>
<path d="M0 0 C1.65 0.33 3.3 0.66 5 1 C5.10957031 1.63808594 5.21914063 2.27617187 5.33203125 2.93359375 C5.49058594 3.75988281 5.64914062 4.58617187 5.8125 5.4375 C5.96332031 6.26121094 6.11414063 7.08492187 6.26953125 7.93359375 C6.51058594 8.61550781 6.75164062 9.29742187 7 10 C7.99 10.33 8.98 10.66 10 11 C10.6875 13.0625 10.6875 13.0625 11 15 C9.68 15.33 8.36 15.66 7 16 C7.33 17.32 7.66 18.64 8 20 C9.32 20.33 10.64 20.66 12 21 C9.03 21 6.06 21 3 21 C3 19.35 3 17.7 3 16 C1.68 16.33 0.36 16.66 -1 17 C-0.34 17.33 0.32 17.66 1 18 C0.34 18.99 -0.32 19.98 -1 21 C-2.9453125 21.29296875 -2.9453125 21.29296875 -5.125 21.1875 C-6.40375 21.125625 -7.6825 21.06375 -9 21 C-9 20.01 -9 19.02 -9 18 C-8.57074219 17.60167969 -8.14148438 17.20335937 -7.69921875 16.79296875 C-5.13444089 14.0866859 -4.1106828 10.74547229 -2.8125 7.3125 C-2.53986328 6.61060547 -2.26722656 5.90871094 -1.98632812 5.18554688 C-1.31714455 3.45975765 -0.65761525 1.73023041 0 0 Z M0 9 C0 9.66 0 10.32 0 11 C0.66 11 1.32 11 2 11 C2 10.34 2 9.68 2 9 C1.34 9 0.68 9 0 9 Z " fill="#386E81" transform="translate(282,229)"/>
<path d="M0 0 C1.94204489 3.26263542 3.0127564 5.34942348 2.9375 9.1875 C2 12 2 12 0.1875 13.9375 C-2 15 -2 15 -4.25 14.6875 C-4.8275 14.460625 -5.405 14.23375 -6 14 C-6 15.32 -6 16.64 -6 18 C-5.01 18 -4.02 18 -3 18 C-3 18.66 -3 19.32 -3 20 C-10.75 21.125 -10.75 21.125 -13 20 C-13 19.34 -13 18.68 -13 18 C-12.01 18 -11.02 18 -10 18 C-10 13.05 -10 8.1 -10 3 C-10.66 3 -11.32 3 -12 3 C-12 3.99 -12 4.98 -12 6 C-12.99 6 -13.98 6 -15 6 C-15 5.34 -15 4.68 -15 4 C-15.99 3.67 -16.98 3.34 -18 3 C-18 2.34 -18 1.68 -18 1 C-11.97403427 -0.0712828 -6.11090483 -0.09945415 0 0 Z M-4 3 C-6.33391203 5.78114056 -6.33391203 5.78114056 -5.625 8.6875 C-5.41875 9.450625 -5.2125 10.21375 -5 11 C-4.01 11 -3.02 11 -2 11 C-2 8.69 -2 6.38 -2 4 C-2.66 3.67 -3.32 3.34 -4 3 Z " fill="#3B87A3" transform="translate(392,236)"/>
<path d="M0 0 C1.32 0 2.64 0 4 0 C3.67 3.3 3.34 6.6 3 10 C3.66 9.67 4.32 9.34 5 9 C5.144375 7.865625 5.28875 6.73125 5.4375 5.5625 C5.623125 4.386875 5.80875 3.21125 6 2 C9.66865241 -0.44576827 11.67200343 -0.23607254 16 0 C16.66 0.33 17.32 0.66 18 1 C17.875 2.75 17.875 2.75 17 5 C13.9375 7.25 13.9375 7.25 11 9 C11.99 9 12.98 9 14 9 C14.99 9 15.98 9 17 9 C16.67 10.65 16.34 12.3 16 14 C9.375 15.125 9.375 15.125 6 14 C3.99124558 14.27571139 1.98821313 14.60235737 0 15 C-0.19448477 12.87562788 -0.38038289 10.75046809 -0.5625 8.625 C-0.66691406 7.44164062 -0.77132813 6.25828125 -0.87890625 5.0390625 C-1 2 -1 2 0 0 Z " fill="#35893A" transform="translate(372,209)"/>
<path d="M0 0 C0.71671875 -0.020625 1.4334375 -0.04125 2.171875 -0.0625 C6.74410382 -0.09611933 9.57587061 0.5016355 13.25 3.25 C12.59 4.57 11.93 5.89 11.25 7.25 C10.26 6.92 9.27 6.59 8.25 6.25 C8.25 5.59 8.25 4.93 8.25 4.25 C6.27 4.58 4.29 4.91 2.25 5.25 C1.92 11.19 1.59 17.13 1.25 23.25 C-0.07 23.58 -1.39 23.91 -2.75 24.25 C-3.75 23.25 -3.75 23.25 -3.86352539 21.48413086 C-3.85567017 20.36083374 -3.85567017 20.36083374 -3.84765625 19.21484375 C-3.84443359 18.40595703 -3.84121094 17.59707031 -3.83789062 16.76367188 C-3.82951172 15.91353516 -3.82113281 15.06339844 -3.8125 14.1875 C-3.80798828 13.33349609 -3.80347656 12.47949219 -3.79882812 11.59960938 C-3.78700373 9.48304337 -3.76906769 7.36651315 -3.75 5.25 C-4.41 5.25 -5.07 5.25 -5.75 5.25 C-6.08 6.24 -6.41 7.23 -6.75 8.25 C-7.41 8.25 -8.07 8.25 -8.75 8.25 C-8.79241723 5.91705225 -8.79092937 3.58297433 -8.75 1.25 C-6.72363933 -0.77636067 -2.77022651 0.01950864 0 0 Z " fill="#358538" transform="translate(271.75,199.75)"/>
<path d="M0 0 C0.98484375 0.02707031 1.9696875 0.05414063 2.984375 0.08203125 C3.73203125 0.11683594 4.4796875 0.15164062 5.25 0.1875 C5.25 2.4975 5.25 4.8075 5.25 7.1875 C4.59 7.1875 3.93 7.1875 3.25 7.1875 C2.59 6.1975 1.93 5.2075 1.25 4.1875 C-0.4 4.5175 -2.05 4.8475 -3.75 5.1875 C-3.75 9.1475 -3.75 13.1075 -3.75 17.1875 C-2.1 17.1875 -0.45 17.1875 1.25 17.1875 C1.91 15.8675 2.57 14.5475 3.25 13.1875 C4.24 13.1875 5.23 13.1875 6.25 13.1875 C6.29241723 15.52044775 6.29092937 17.85452567 6.25 20.1875 C4.52415266 21.91334734 2.28790633 21.4408507 -0.0625 21.5 C-1.02800781 21.53738281 -1.99351562 21.57476562 -2.98828125 21.61328125 C-5.75 21.1875 -5.75 21.1875 -8.07421875 19.609375 C-10.33743743 16.33852284 -10.28322179 14.07423975 -10.25 10.125 C-10.2603125 8.89652344 -10.270625 7.66804687 -10.28125 6.40234375 C-9.75 3.1875 -9.75 3.1875 -8.078125 1.265625 C-5.2049842 -0.06488986 -3.15414811 -0.11264815 0 0 Z " fill="#27667E" transform="translate(348.75,228.8125)"/>
<path d="M0 0 C0.33 0 0.66 0 1 0 C1.2924227 6.39615897 1.57612406 12.79266728 1.85449219 19.18945312 C1.94961248 21.35359929 2.04654155 23.51766692 2.14550781 25.68164062 C2.85042153 41.13219844 3.12489627 56.53367819 3 72 C9.27 72 15.54 72 22 72 C22 72.66 22 73.32 22 74 C18.54268736 75.15243755 15.76740787 75.16824837 12.125 75.1875 C10.91070312 75.20167969 9.69640625 75.21585937 8.4453125 75.23046875 C5 75 5 75 0 73 C0 48.91 0 24.82 0 0 Z " fill="#196429" transform="translate(327,91)"/>
<path d="M0 0 C0.33 0 0.66 0 1 0 C1.04898437 0.62648437 1.09796875 1.25296875 1.1484375 1.8984375 C1.22320312 2.71570313 1.29796875 3.53296875 1.375 4.375 C1.44460938 5.18710938 1.51421875 5.99921875 1.5859375 6.8359375 C1.82892588 9.20334191 1.82892588 9.20334191 4 11 C3.34 11 2.68 11 2 11 C2.66 12.65 3.32 14.3 4 16 C6.22739701 14.93798263 6.22739701 14.93798263 9 13 C12.4375 14.3125 12.4375 14.3125 16 16 C17.32276056 16.37308631 18.65232077 16.73046415 20 17 C20 17.99 20 18.98 20 20 C14.48231511 21.12861736 14.48231511 21.12861736 12.125 20.5 C9.78815159 19.95015331 8.35413127 20.18462284 6 20.5625 C3.34721902 20.94782014 2.15521105 21.05173702 -0.4375 20.1875 C-2 19 -2 19 -3 17 C-3.23333333 10.46666667 -3.23333333 10.46666667 -2 8 C-1.34 8 -0.68 8 0 8 C0 5.36 0 2.72 0 0 Z " fill="#2F6F31" transform="translate(329,203)"/>
<path d="M0 0 C1.02544922 -0.020625 2.05089844 -0.04125 3.10742188 -0.0625 C11.71229775 -0.10598642 19.6508838 1.16941679 27.3125 5.25 C27.3125 5.91 27.3125 6.57 27.3125 7.25 C25.72892541 6.93872484 24.14565007 6.62592711 22.5625 6.3125 C21.68078125 6.13847656 20.7990625 5.96445312 19.890625 5.78515625 C17.3125 5.25 17.3125 5.25 15.109375 4.62109375 C13.22103907 4.03786704 13.22103907 4.03786704 11.3125 5.25 C11.3125 4.59 11.3125 3.93 11.3125 3.25 C9.3325 3.91 7.3525 4.57 5.3125 5.25 C5.3125 4.26 5.3125 3.27 5.3125 2.25 C4.3225 2.25 3.3325 2.25 2.3125 2.25 C1.9825 2.91 1.6525 3.57 1.3125 4.25 C-1.33610427 4.84355614 -3.97947322 4.99209269 -6.6875 5.25 C-6.6875 4.59 -6.6875 3.93 -6.6875 3.25 C-7.76 3.62125 -8.8325 3.9925 -9.9375 4.375 C-13.6875 5.25 -13.6875 5.25 -16.125 4.375 C-16.640625 4.00375 -17.15625 3.6325 -17.6875 3.25 C-17.6875 2.59 -17.6875 1.93 -17.6875 1.25 C-11.81276702 -0.00381564 -5.9784022 0.02950476 0 0 Z " fill="#85D990" transform="translate(338.6875,42.75)"/>
<path d="M0 0 C10.00247533 1.35692495 23.31088317 8.56572248 30 16 C31.0625 19.4375 31.0625 19.4375 31 22 C28 21 28 21 26 18 C24.34302621 17.30959426 22.6744239 16.6469365 21 16 C17.6875 14 17.6875 14 15 12 C15 11.34 15 10.68 15 10 C14.01 10 13.02 10 12 10 C12 9.34 12 8.68 12 8 C10.68 8 9.36 8 8 8 C7.67 8.66 7.34 9.32 7 10 C4 5.375 4 5.375 4 2 C2.68 1.34 1.36 0.68 0 0 Z " fill="#69B876" transform="translate(362,46)"/>
<path d="M0 0 C2 2 2 2 2.1953125 3.9453125 C2.13020833 5.96354167 2.06510417 7.98177083 2 10 C1.01 9.67 0.02 9.34 -1 9 C-0.67 10.65 -0.34 12.3 0 14 C-1.45742463 14.08096803 -2.91612807 14.13917774 -4.375 14.1875 C-5.18710937 14.22230469 -5.99921875 14.25710937 -6.8359375 14.29296875 C-7.55007813 14.19628906 -8.26421875 14.09960938 -9 14 C-11.47342266 10.28986601 -11.38503486 8.38939738 -11 4 C-8.82892982 -1.29198356 -5.04033393 -0.4800318 0 0 Z M-5 3 C-6.35618499 4.12534105 -6.35618499 4.12534105 -6.0625 7.0625 C-6.041875 8.031875 -6.02125 9.00125 -6 10 C-4.68 10 -3.36 10 -2 10 C-2 8.02 -2 6.04 -2 4 C-2.99 3.67 -3.98 3.34 -5 3 Z " fill="#397D9C" transform="translate(367,236)"/>
<path d="M0 0 C-2.52357406 3.78536109 -4.87045822 4.26124557 -9 6 C-9.495 6.53625 -9.99 7.0725 -10.5 7.625 C-12 9 -12 9 -15.375 9.375 C-19.81524137 10.14055886 -21.20614953 11.54877295 -24 15 C-24.33 15.99 -24.66 16.98 -25 18 C-26.65 17.67 -28.3 17.34 -30 17 C-25.97291933 7.60347843 -17.90045474 4.8543006 -9 1 C-5.8035914 -0.06546953 -3.34252724 -0.07427838 0 0 Z " fill="#7DC589" transform="translate(320,46)"/>
<path d="M0 0 C0.66 0 1.32 0 2 0 C2 0.66 2 1.32 2 2 C3.9490625 1.7525 3.9490625 1.7525 5.9375 1.5 C9.95238481 0.99017336 12.96209811 1.31269755 17 2 C17.061875 2.556875 17.12375 3.11375 17.1875 3.6875 C18.33373872 6.94987173 20.49390197 8.68667874 23 11 C22.34 11.66 21.68 12.32 21 13 C20.24396484 12.35417969 20.24396484 12.35417969 19.47265625 11.6953125 C16.328657 9.53971112 12.9741202 8.23235279 9.4375 6.875 C8.76525391 6.61074219 8.09300781 6.34648438 7.40039062 6.07421875 C4.61776572 4.98548567 1.83504114 3.94501371 -1 3 C-0.67 2.01 -0.34 1.02 0 0 Z " fill="#63BB73" transform="translate(350,63)"/>
<path d="M0 0 C1.98 0.495 1.98 0.495 4 1 C3.88535985 3.70912781 3.75862846 6.41679661 3.625 9.125 C3.5940625 9.88554687 3.563125 10.64609375 3.53125 11.4296875 C3.297631 15.94632158 2.67345883 19.74152347 1 24 C2.32 24 3.64 24 5 24 C5 24.99 5 25.98 5 27 C3.35 27.33 1.7 27.66 0 28 C-1.37365621 25.25268757 -1.0128639 23.18332936 -0.87890625 20.1171875 C-0.80639648 18.36728516 -0.80639648 18.36728516 -0.73242188 16.58203125 C-0.67634766 15.35871094 -0.62027344 14.13539063 -0.5625 12.875 C-0.48418945 11.02841797 -0.48418945 11.02841797 -0.40429688 9.14453125 C-0.2743256 6.09611412 -0.13934981 3.0480005 0 0 Z " fill="#448B4A" transform="translate(391,196)"/>
<path d="M0 0 C0.99 0.33 1.98 0.66 3 1 C2.01 2.485 2.01 2.485 1 4 C1.66 4 2.32 4 3 4 C1.56438314 7.18706942 -0.20266329 9.62169105 -2.5 12.25 C-3.1084375 12.95640625 -3.716875 13.6628125 -4.34375 14.390625 C-6 16 -6 16 -8 16 C-8.33 14.02 -8.66 12.04 -9 10 C-8.34 10 -7.68 10 -7 10 C-7.20625 9.401875 -7.4125 8.80375 -7.625 8.1875 C-8 6 -8 6 -6 3 C-2.875 2.3125 -2.875 2.3125 0 2 C0 1.34 0 0.68 0 0 Z " fill="#4BC060" transform="translate(399,88)"/>
<path d="M0 0 C1.65 0.33 3.3 0.66 5 1 C5.10957031 1.63808594 5.21914063 2.27617187 5.33203125 2.93359375 C5.49058594 3.75988281 5.64914062 4.58617187 5.8125 5.4375 C6.03873047 6.67306641 6.03873047 6.67306641 6.26953125 7.93359375 C6.51058594 8.61550781 6.75164062 9.29742187 7 10 C7.99 10.33 8.98 10.66 10 11 C10.6875 13.0625 10.6875 13.0625 11 15 C9.68 15.33 8.36 15.66 7 16 C7.33 17.32 7.66 18.64 8 20 C7.01 19.67 6.02 19.34 5 19 C4.32060826 17.00428677 3.65438441 15.00405227 3 13 C2.01 12.34 1.02 11.68 0 11 C0.66 11 1.32 11 2 11 C1.67 9.02 1.34 7.04 1 5 C0.01 4.67 -0.98 4.34 -2 4 C-1.34 2.68 -0.68 1.36 0 0 Z " fill="#2A7289" transform="translate(282,229)"/>
<path d="M0 0 C1.9119238 3.22504532 2.22856003 5.55537135 2.16015625 9.28125 C2.1437207 10.79138672 2.1437207 10.79138672 2.12695312 12.33203125 C2.10568359 13.37746094 2.08441406 14.42289063 2.0625 15.5 C2.02799517 17.57284582 1.99787175 19.64577037 1.97265625 21.71875 C1.95468994 22.63591797 1.93672363 23.55308594 1.91821289 24.49804688 C1.99448999 26.83144314 2.33486633 28.7709386 3 31 C2.34 31 1.68 31 1 31 C0.67 31.66 0.34 32.32 0 33 C-2.2054634 22.95726488 -2.20430975 13.21548751 -2 3 C-1.34 3 -0.68 3 0 3 C0 2.01 0 1.02 0 0 Z " fill="#2A6878" transform="translate(264,108)"/>
<path d="M0 0 C0 1.65 0 3.3 0 5 C-0.66 5 -1.32 5 -2 5 C-2.66 4.34 -3.32 3.68 -4 3 C-5.175625 3.433125 -5.175625 3.433125 -6.375 3.875 C-10.10816052 5.03356706 -13.79674685 5.81215945 -17.6328125 6.53515625 C-19.77788567 6.95638349 -21.88498014 7.4493151 -24 8 C-24 7.01 -24 6.02 -24 5 C-23.34 5 -22.68 5 -22 5 C-21.67 4.01 -21.34 3.02 -21 2 C-18.23735711 1.40267181 -15.83967231 1 -13 1 C-10.73699205 0.49572014 -8.49833607 -0.07911097 -6.25390625 -0.66015625 C-3.84067544 -1.02402294 -2.30103818 -0.74954091 0 0 Z " fill="#6FC37C" transform="translate(330,64)"/>
<path d="M0 0 C3.96 0 7.92 0 12 0 C13.13016601 5.02296004 12.77916092 8.97874074 12 14 C10.68 14.33 9.36 14.66 8 15 C8 11.04 8 7.08 8 3 C7.01 3 6.02 3 5 3 C5 2.34 5 1.68 5 1 C3.02 1.33 1.04 1.66 -1 2 C-0.67 1.34 -0.34 0.68 0 0 Z " fill="#38AE40" transform="translate(290,209)"/>
<path d="M0 0 C2.475 0.99 2.475 0.99 5 2 C5.25 9.625 5.25 9.625 3 13 C1.0546875 13.29296875 1.0546875 13.29296875 -1.125 13.1875 C-3.043125 13.0946875 -3.043125 13.0946875 -5 13 C-6.15941038 9.52176885 -5.70820884 7.54104422 -5 4 C-4.67 5.32 -4.34 6.64 -4 8 C-2.68 8.33 -1.36 8.66 0 9 C0 6.03 0 3.06 0 0 Z " fill="#306674" transform="translate(325,237)"/>
<path d="M0 0 C0.66 0.66 1.32 1.32 2 2 C1.88774072 8.96007515 1.88774072 8.96007515 -1.1875 12.5625 C-4.63347875 14.32377803 -6.33373987 14.02314236 -10 13 C-9.01 12.34 -8.02 11.68 -7 11 C-6.67 10.34 -6.34 9.68 -6 9 C-5.34 9.33 -4.68 9.66 -4 10 C-4 7.36 -4 4.72 -4 2 C-2.68 2 -1.36 2 0 2 C0 1.34 0 0.68 0 0 Z " fill="#2A5C2C" transform="translate(408,210)"/>
<path d="M0 0 C8.53082101 -0.41954857 16.40361685 0.92734703 24 5 C24 5.66 24 6.32 24 7 C22.41642541 6.68872484 20.83315007 6.37592711 19.25 6.0625 C18.36828125 5.88847656 17.4865625 5.71445312 16.578125 5.53515625 C14 5 14 5 11.796875 4.37109375 C9.90853907 3.78786704 9.90853907 3.78786704 8 5 C8 4.34 8 3.68 8 3 C6.02 3.66 4.04 4.32 2 5 C2 4.01 2 3.02 2 2 C1.34 2 0.68 2 0 2 C0 1.34 0 0.68 0 0 Z " fill="#7FCC89" transform="translate(342,43)"/>
<path d="M0 0 C1.32 0.33 2.64 0.66 4 1 C3.34 1 2.68 1 2 1 C2 1.66 2 2.32 2 3 C2.99 2.67 3.98 2.34 5 2 C5.33 2.66 5.66 3.32 6 4 C6.33 2.68 6.66 1.36 7 0 C7.66 0 8.32 0 9 0 C9 2.64 9 5.28 9 8 C9.99 8.33 10.98 8.66 12 9 C12 9.99 12 10.98 12 12 C9.1875 12.625 9.1875 12.625 6 13 C5.01 12.34 4.02 11.68 3 11 C3.2475 10.443125 3.495 9.88625 3.75 9.3125 C4.28865916 6.77128715 4.28865916 6.77128715 2.0625 4.375 C1.381875 3.59125 0.70125 2.8075 0 2 C0 1.34 0 0.68 0 0 Z " fill="#2F7532" transform="translate(310,211)"/>
<path d="M0 0 C2 0.125 2 0.125 4 1 C5.25 3.0625 5.25 3.0625 6 5 C2.18706566 7.69148306 -0.33489303 8.50707684 -5 8 C-5.99 7.34 -6.98 6.68 -8 6 C-7.67 4.35 -7.34 2.7 -7 1 C-6.67 1.99 -6.34 2.98 -6 4 C-4.02 4 -2.04 4 0 4 C-0.66 3.34 -1.32 2.68 -2 2 C-1.34 1.34 -0.68 0.68 0 0 Z " fill="#4A7B88" transform="translate(301,249)"/>
<path d="M0 0 C3.96 0 7.92 0 12 0 C12 0.33 12 0.66 12 1 C9.69 1 7.38 1 5 1 C5.515625 1.53625 6.03125 2.0725 6.5625 2.625 C8 5 8 5 7.6875 8.25 C7.460625 9.1575 7.23375 10.065 7 11 C6.67 11 6.34 11 6 11 C6 9.02 6 7.04 6 5 C5.34 5 4.68 5 4 5 C3.67 7.31 3.34 9.62 3 12 C1.35 12.33 -0.3 12.66 -2 13 C-2.33 11.68 -2.66 10.36 -3 9 C-2.34 9 -1.68 9 -1 9 C-0.67 6.03 -0.34 3.06 0 0 Z M1 4 C1 6.31 1 8.62 1 11 C1.33 11 1.66 11 2 11 C2 8.69 2 6.38 2 4 C1.67 4 1.34 4 1 4 Z " fill="#235A6D" transform="translate(369,236)"/>
<path d="M0 0 C0.99 0 1.98 0 3 0 C3.04241723 2.33294775 3.04092937 4.66702567 3 7 C2 8 2 8 -0.50390625 8.09765625 C-2.01791016 8.08025391 -2.01791016 8.08025391 -3.5625 8.0625 C-4.57441406 8.05347656 -5.58632813 8.04445312 -6.62890625 8.03515625 C-7.41136719 8.02355469 -8.19382812 8.01195312 -9 8 C-9.66 6.68 -10.32 5.36 -11 4 C-7.52176885 2.84058962 -5.54104422 3.29179116 -2 4 C-1.34 2.68 -0.68 1.36 0 0 Z " fill="#427890" transform="translate(352,242)"/>
<path d="M0 0 C1.4540625 0.0309375 1.4540625 0.0309375 2.9375 0.0625 C2.2775 0.7225 1.6175 1.3825 0.9375 2.0625 C0.2949765 4.13124034 0.2949765 4.13124034 -0.0625 6.0625 C1.2575 5.7325 2.5775 5.4025 3.9375 5.0625 C3.64875 5.619375 3.36 6.17625 3.0625 6.75 C1.8961747 9.14744645 0.9035119 11.57846939 -0.0625 14.0625 C-1.3825 13.4025 -2.7025 12.7425 -4.0625 12.0625 C-4.08937279 10.25007948 -4.10883715 8.43754767 -4.125 6.625 C-4.13660156 5.61566406 -4.14820313 4.60632813 -4.16015625 3.56640625 C-4.01596662 -0.13061575 -3.76355726 0.07680729 0 0 Z " fill="#4CA05A" transform="translate(334.0625,200.9375)"/>
<path d="M0 0 C2.64 0 5.28 0 8 0 C10.05257931 3.44833324 11.0632763 5.31661591 10.6875 9.375 C10.460625 10.24125 10.23375 11.1075 10 12 C7.33264727 9.51047079 5.44253657 7.36591866 4 4 C3.67 4.66 3.34 5.32 3 6 C2.34 6 1.68 6 1 6 C1 5.01 1 4.02 1 3 C1.66 2.67 2.32 2.34 3 2 C2.01 1.34 1.02 0.68 0 0 Z " fill="#38788D" transform="translate(384,236)"/>
<path d="M0 0 C3.96 0 7.92 0 12 0 C11.67 3.3 11.34 6.6 11 10 C9.53867783 7.07735566 8.65900754 5.07536854 8 2 C6.68 2 5.36 2 4 2 C4.26676204 3.98491642 4.26676204 3.98491642 5 6 C5.99 6.33 6.98 6.66 8 7 C6.35 7.33 4.7 7.66 3 8 C2.01 5.36 1.02 2.72 0 0 Z " fill="#5FAB60" transform="translate(306,209)"/>
<path d="M0 0 C0.92039062 0.29197266 0.92039062 0.29197266 1.859375 0.58984375 C-0.80729167 2.58984375 -3.47395833 4.58984375 -6.140625 6.58984375 C-6.82640625 7.17121094 -7.5121875 7.75257813 -8.21875 8.3515625 C-8.85296875 8.76019531 -9.4871875 9.16882813 -10.140625 9.58984375 C-11.130625 9.25984375 -12.120625 8.92984375 -13.140625 8.58984375 C-13.140625 7.92984375 -13.140625 7.26984375 -13.140625 6.58984375 C-12.480625 6.58984375 -11.820625 6.58984375 -11.140625 6.58984375 C-10.480625 4.60984375 -9.820625 2.62984375 -9.140625 0.58984375 C-8.150625 0.58984375 -7.160625 0.58984375 -6.140625 0.58984375 C-6.140625 1.24984375 -6.140625 1.90984375 -6.140625 2.58984375 C-5.563125 2.07421875 -4.985625 1.55859375 -4.390625 1.02734375 C-2.140625 -0.41015625 -2.140625 -0.41015625 0 0 Z " fill="#2D5E91" transform="translate(388.140625,178.41015625)"/>
<path d="M0 0 C1.48693359 0.67482422 1.48693359 0.67482422 3.00390625 1.36328125 C6.89923697 3.0327087 10.83497053 4.15280905 14.9375 5.1875 C15.62134766 5.36474609 16.30519531 5.54199219 17.00976562 5.72460938 C18.6719081 6.15467421 20.33577788 6.57805437 22 7 C18.28125 9.046875 18.28125 9.046875 15.75 8.625 C15.1725 8.41875 14.595 8.2125 14 8 C14 7.34 14 6.68 14 6 C9.05 6.33 4.1 6.66 -1 7 C-0.34 6.01 0.32 5.02 1 4 C0.69159401 1.84725052 0.69159401 1.84725052 0 0 Z " fill="#29567D" transform="translate(310,167)"/>
<path d="M0 0 C0 0.66 0 1.32 0 2 C-0.66 2 -1.32 2 -2 2 C-2.2475 2.5775 -2.495 3.155 -2.75 3.75 C-4.16599656 6.29879381 -5.94723215 7.94723215 -8 10 C-8.33 10.99 -8.66 11.98 -9 13 C-10.65 12.67 -12.3 12.34 -14 12 C-11.01961932 6.34139705 -7.25358157 0 0 0 Z " fill="#70B87C" transform="translate(304,51)"/>
<path d="M0 0 C0.66 0.33 1.32 0.66 2 1 C0.02 1.99 0.02 1.99 -2 3 C-1.443125 3.8353125 -1.443125 3.8353125 -0.875 4.6875 C0 7 0 7 -0.625 9.6875 C-2 12 -2 12 -4 12.875 C-6 13 -6 13 -8 12 C-6.794926 4.76955603 -6.794926 4.76955603 -4.53125 2.578125 C-2.875 1.5 -2.875 1.5 0 0 Z " fill="#5EC572" transform="translate(281,71)"/>
<path d="M0 0 C2.64 0 5.28 0 8 0 C9.4783226 2.95664519 9.06032783 5.74229737 9 9 C8.01 9 7.02 9 6 9 C6 9.66 6 10.32 6 11 C4.02 11 2.04 11 0 11 C0 10.34 0 9.68 0 9 C0.66 9 1.32 9 2 9 C2.33 8.34 2.66 7.68 3 7 C4.65 7 6.3 7 8 7 C7.34 6.01 6.68 5.02 6 4 C5.67 3.34 5.34 2.68 5 2 C4.01 2 3.02 2 2 2 C1.67 3.32 1.34 4.64 1 6 C0.67 4.02 0.34 2.04 0 0 Z " fill="#4F9BB5" transform="translate(296,237)"/>
<path d="M0 0 C3.94949704 0.62816498 7.19892028 1.8645529 10.8125 3.5625 C12.27623047 4.24505859 12.27623047 4.24505859 13.76953125 4.94140625 C14.87361328 5.46541016 14.87361328 5.46541016 16 6 C14 8 14 8 10.875 8.125 C9.92625 8.08375 8.9775 8.0425 8 8 C7.67 8.66 7.34 9.32 7 10 C4 5.375 4 5.375 4 2 C2.68 1.34 1.36 0.68 0 0 Z " fill="#67B174" transform="translate(362,46)"/>
<path d="M0 0 C-0.33 0.66 -0.66 1.32 -1 2 C-2.32 1.67 -3.64 1.34 -5 1 C-5 4.96 -5 8.92 -5 13 C-5.33 13 -5.66 13 -6 13 C-6 9.37 -6 5.74 -6 2 C-6.66 2 -7.32 2 -8 2 C-8 2.99 -8 3.98 -8 5 C-8.99 5 -9.98 5 -11 5 C-11 4.34 -11 3.68 -11 3 C-11.99 2.67 -12.98 2.34 -14 2 C-14 1.34 -14 0.68 -14 0 C-9.02936879 -0.91297308 -4.97063121 -0.91297308 0 0 Z " fill="#539DB8" transform="translate(388,237)"/>
<path d="M0 0 C0.33 0 0.66 0 1 0 C1 1.98 1 3.96 1 6 C-4.61 6 -10.22 6 -16 6 C-16.33 4.68 -16.66 3.36 -17 2 C-15.68 2 -14.36 2 -13 2 C-13 2.66 -13 3.32 -13 4 C-11.39482903 3.91266424 -9.79078338 3.80447776 -8.1875 3.6875 C-7.29417969 3.62949219 -6.40085937 3.57148438 -5.48046875 3.51171875 C-2.67413328 2.93277395 -1.81788801 2.13902911 0 0 Z " fill="#07A826" transform="translate(346,158)"/>
<path d="M0 0 C0.33 1.32 0.66 2.64 1 4 C1.66 4 2.32 4 3 4 C3.33 3.34 3.66 2.68 4 2 C4.93619813 5.15506142 5.1057123 7.96586502 5.0625 11.25 C5.05347656 12.14203125 5.04445313 13.0340625 5.03515625 13.953125 C5.02355469 14.62859375 5.01195312 15.3040625 5 16 C4.34 16 3.68 16 3 16 C3 14.35 3 12.7 3 11 C2.34 11 1.68 11 1 11 C-0.98362069 8.08291076 -0.9876191 6.87619096 -0.625 3.25 C-0.41875 2.1775 -0.2125 1.105 0 0 Z " fill="#2A758A" transform="translate(282,126)"/>
<path d="M0 0 C2.86724686 0.57344937 3.8614515 0.8614515 6 3 C6 4.32 6 5.64 6 7 C1.92857143 10 1.92857143 10 -1 10 C-1.125 2.25 -1.125 2.25 0 0 Z " fill="#3D9390" transform="translate(265,96)"/>
<path d="M0 0 C2.375 -0.125 2.375 -0.125 5 0 C5.66 0.66 6.32 1.32 7 2 C6.69690596 6.09176955 6.12300942 9.46165096 4 13 C3.34 13 2.68 13 2 13 C1.67 14.32 1.34 15.64 1 17 C0.67 16.34 0.34 15.68 0 15 C1.43775696 11.78216298 3.04417512 8.93373731 5 6 C4.01 6.33 3.02 6.66 2 7 C1.34 5.68 0.68 4.36 0 3 C0.99 2.67 1.98 2.34 3 2 C2.01 1.34 1.02 0.68 0 0 Z " fill="#2B6F32" transform="translate(333,200)"/>
<path d="M0 0 C1.64574566 -0.02688151 3.29161413 -0.04634123 4.9375 -0.0625 C5.85402344 -0.07410156 6.77054687 -0.08570313 7.71484375 -0.09765625 C10 0 10 0 11 1 C11.04080783 2.99958364 11.04254356 5.00045254 11 7 C9.68 7 8.36 7 7 7 C6.67 5.35 6.34 3.7 6 2 C3.69 2 1.38 2 -1 2 C-0.67 1.34 -0.34 0.68 0 0 Z " fill="#56A258" transform="translate(360,201)"/>
<path d="M0 0 C3.125 0.375 3.125 0.375 6 1 C6 2.65 6 4.3 6 6 C4.02253397 6.73080266 2.01927511 7.39421747 0 8 C-0.66 7.67 -1.32 7.34 -2 7 C-2.125 4.625 -2.125 4.625 -2 2 C-1.34 1.34 -0.68 0.68 0 0 Z " fill="#245FA0" transform="translate(370,183)"/>
<path d="M0 0 C0.99 0.33 1.98 0.66 3 1 C5.14255793 0.61067144 5.14255793 0.61067144 7 0 C6.67 1.65 6.34 3.3 6 5 C2.6875 5.6875 2.6875 5.6875 -1 6 C-2.9375 4.5625 -2.9375 4.5625 -4 3 C-2.68 2.67 -1.36 2.34 0 2 C0 1.34 0 0.68 0 0 Z " fill="#366539" transform="translate(382,218)"/>
<path d="M0 0 C-2.33706436 1.977516 -4.0280597 3.00818408 -7 3.875 C-10.60009222 5.22503458 -11.75860444 6.95810603 -14 10 C-14.66 10 -15.32 10 -16 10 C-16 8.35 -16 6.7 -16 5 C-14.27656245 4.15488176 -12.54595947 3.32436646 -10.8125 2.5 C-9.36810547 1.80390625 -9.36810547 1.80390625 -7.89453125 1.09375 C-5.01077307 0.00407079 -3.04645139 -0.22277524 0 0 Z " fill="#579B63" transform="translate(318,69)"/>
<path d="M0 0 C3.63 0 7.26 0 11 0 C11 2.31 11 4.62 11 7 C10.34 7 9.68 7 9 7 C8.34 6.01 7.68 5.02 7 4 C3.44327821 2.7811879 3.44327821 2.7811879 0 2 C0 1.34 0 0.68 0 0 Z " fill="#396C82" transform="translate(343,229)"/>
<path d="M0 0 C5.05968873 -0.17151487 8.33235737 -0.03461345 13 2 C14.794375 2.2165625 14.794375 2.2165625 16.625 2.4375 C20.18214847 3.03035808 20.74853299 3.44151477 23 6 C14.88861071 5.63379732 7.66964333 3.58459767 0 1 C0 0.67 0 0.34 0 0 Z " fill="#224674" transform="translate(308,191)"/>
<path d="M0 0 C0.99 0 1.98 0 3 0 C3.33 1.98 3.66 3.96 4 6 C3.443125 6.2475 2.88625 6.495 2.3125 6.75 C-0.39971127 8.21606015 -2.63587365 10.02989471 -5 12 C-4.42365861 7.24518354 -2.44931479 4.02951788 0 0 Z " fill="#2973A3" transform="translate(381,155)"/>
<path d="M0 0 C2.81872737 0.38878998 3.77195598 0.70810365 5.5625 3 C6.036875 3.66 6.51125 4.32 7 5 C7.99 5.33 8.98 5.66 10 6 C10 11.28 10 16.56 10 22 C9.67 22 9.34 22 9 22 C9 17.05 9 12.1 9 7 C6.03 6.505 6.03 6.505 3 6 C0 2.9 0 2.9 0 0 Z " fill="#2A6061" transform="translate(275,105)"/>
<path d="M0 0 C0.66 0 1.32 0 2 0 C2.33 1.32 2.66 2.64 3 4 C3.99 3.01 4.98 2.02 6 1 C6.99 1.33 7.98 1.66 9 2 C7.88200014 3.33920838 6.75538103 4.67122556 5.625 6 C4.99851562 6.7425 4.37203125 7.485 3.7265625 8.25 C3.15679687 8.8275 2.58703125 9.405 2 10 C1.34 10 0.68 10 0 10 C-0.33 8.02 -0.66 6.04 -1 4 C-0.34 4 0.32 4 1 4 C0.67 2.68 0.34 1.36 0 0 Z " fill="#47A559" transform="translate(391,94)"/>
<path d="M0 0 C0.33 0.66 0.66 1.32 1 2 C1.66 2.33 2.32 2.66 3 3 C2.01 4.485 2.01 4.485 1 6 C-0.9453125 6.29296875 -0.9453125 6.29296875 -3.125 6.1875 C-4.40375 6.125625 -5.6825 6.06375 -7 6 C-7 3 -7 3 -5.75 1.3125 C-4 0 -4 0 0 0 Z " fill="#467785" transform="translate(280,244)"/>
<path d="M0 0 C1.32 0.33 2.64 0.66 4 1 C3.773125 1.763125 3.54625 2.52625 3.3125 3.3125 C3.209375 4.199375 3.10625 5.08625 3 6 C4.35444301 7.77190909 4.35444301 7.77190909 6 9 C6 9.33 6 9.66 6 10 C4.02 10 2.04 10 0 10 C0 9.34 0 8.68 0 8 C-1.32 8 -2.64 8 -4 8 C-3.67 7.34 -3.34 6.68 -3 6 C-2.01 6.33 -1.02 6.66 0 7 C0 4.69 0 2.38 0 0 Z " fill="#3E9841" transform="translate(396,212)"/>
<path d="M0 0 C1.33804687 0.04060547 1.33804687 0.04060547 2.703125 0.08203125 C3.37859375 0.11683594 4.0540625 0.15164062 4.75 0.1875 C4.75 0.5175 4.75 0.8475 4.75 1.1875 C0.295 1.6825 0.295 1.6825 -4.25 2.1875 C-1.28 2.6825 -1.28 2.6825 1.75 3.1875 C1.75 3.5175 1.75 3.8475 1.75 4.1875 C0.80125 4.31125 -0.1475 4.435 -1.125 4.5625 C-4.33667191 4.90437177 -4.33667191 4.90437177 -6.25 7.1875 C-8.875 7.8125 -8.875 7.8125 -11.25 8.1875 C-9.2587051 2.04767406 -6.51199172 -0.2570523 0 0 Z " fill="#2D612E" transform="translate(364.25,199.8125)"/>
<path d="M0 0 C1.7074998 1.28062485 3.37373596 2.61767557 5 4 C5 4.66 5 5.32 5 6 C6.32 6.66 7.64 7.32 9 8 C9 8.99 9 9.98 9 11 C7.35 11 5.7 11 4 11 C3.32591692 9.73308493 2.66099503 8.46129251 2 7.1875 C1.62875 6.47980469 1.2575 5.77210938 0.875 5.04296875 C0 3 0 3 0 0 Z " fill="#33648B" transform="translate(297,155)"/>
<path d="M0 0 C0.33 0 0.66 0 1 0 C1 6.27 1 12.54 1 19 C0.34 19 -0.32 19 -1 19 C-1.22171552 16.39634072 -1.42784859 13.79303507 -1.625 11.1875 C-1.68945312 10.44951172 -1.75390625 9.71152344 -1.8203125 8.95117188 C-2.2265625 3.33984375 -2.2265625 3.33984375 0 0 Z " fill="#2D9C3E" transform="translate(349,123)"/>
<path d="M0 0 C1.60031344 3.20062687 0.03173691 5.72271806 -1 9 C-0.34 9 0.32 9 1 9 C1 9.66 1 10.32 1 11 C1.99 11.33 2.98 11.66 4 12 C4 12.66 4 13.32 4 14 C4.66 14.33 5.32 14.66 6 15 C2.41087588 15 1.89142971 14.33563446 -0.6875 12 C-1.31011719 11.443125 -1.93273437 10.88625 -2.57421875 10.3125 C-3.27998047 9.6628125 -3.27998047 9.6628125 -4 9 C-3.23596585 5.52846619 -1.91813089 3.00229182 0 0 Z " fill="#498752" transform="translate(273,79)"/>
<path d="M0 0 C2.50298434 2.93828597 3.46930939 5.17902761 4 9 C4.99 9.33 5.98 9.66 7 10 C7.33 10.66 7.66 11.32 8 12 C7.01 12 6.02 12 5 12 C5 11.34 5 10.68 5 10 C4.01 9.67 3.02 9.34 2 9 C2 7.68 2 6.36 2 5 C1.54625 5.45375 1.0925 5.9075 0.625 6.375 C-1.1875 8.1875 -1.1875 8.1875 -3 10 C-3.29296875 3.9453125 -3.29296875 3.9453125 -3 2 C-2.01 1.34 -1.02 0.68 0 0 Z " fill="#2F7133" transform="translate(305,208)"/>
<path d="M0 0 C0.69867188 0.0721875 1.39734375 0.144375 2.1171875 0.21875 C3.02726562 0.3115625 3.93734375 0.404375 4.875 0.5 C5.77992188 0.5928125 6.68484375 0.685625 7.6171875 0.78125 C9.93313211 1.03047295 9.93313211 1.03047295 12 1 C12 1.66 12 2.32 12 3 C12.763125 2.649375 13.52625 2.29875 14.3125 1.9375 C17 1 17 1 20 2 C20.33 2.66 20.66 3.32 21 4 C18.95840905 4.0272616 16.91671037 4.04651345 14.875 4.0625 C13.73804688 4.07410156 12.60109375 4.08570313 11.4296875 4.09765625 C8.1870844 4.005327 5.18067388 3.61389906 2 3 C2 2.34 2 1.68 2 1 C1.34 0.67 0.68 0.34 0 0 Z " fill="#1B5AA5" transform="translate(320,191)"/>
<path d="M0 0 C0.99 0 1.98 0 3 0 C3.33 5.94 3.66 11.88 4 18 C3.34 18 2.68 18 2 18 C2 15.69 2 13.38 2 11 C1.34 11 0.68 11 0 11 C0 7.37 0 3.74 0 0 Z " fill="#3F949E" transform="translate(281,112)"/>
<path d="M0 0 C2 3 2 3 2 5 C2.99 5 3.98 5 5 5 C5.33 4.01 5.66 3.02 6 2 C6.66 2.66 7.32 3.32 8 4 C7.625 6.125 7.625 6.125 7 8 C3.98968256 8.93423645 3.13349732 9.04449911 0 8 C0 5.36 0 2.72 0 0 Z " fill="#468297" transform="translate(385,242)"/>
<path d="M0 0 C3.63 0 7.26 0 11 0 C9.02 0.99 9.02 0.99 7 2 C7 2.66 7 3.32 7 4 C5.68 4 4.36 4 3 4 C2.67 4.99 2.34 5.98 2 7 C1.34 7 0.68 7 0 7 C0 4.69 0 2.38 0 0 Z " fill="#429C46" transform="translate(263,201)"/>
<path d="M0 0 C-1.65519326 3.31038651 -4.65442221 3.78867011 -8 5 C-8.99 4.67 -9.98 4.34 -11 4 C-11 3.34 -11 2.68 -11 2 C-10.34 2 -9.68 2 -9 2 C-8.67 1.01 -8.34 0.02 -8 -1 C-4.71293093 -2.47351372 -2.99288606 -1.8171094 0 0 Z " fill="#65D378" transform="translate(317,67)"/>
<path d="M0 0 C2 2 2 2 2.125 5.125 C2.08375 6.07375 2.0425 7.0225 2 8 C3.98 8 5.96 8 8 8 C7.01 8.495 7.01 8.495 6 9 C6 9.66 6 10.32 6 11 C4.02 11.33 2.04 11.66 0 12 C0 8.04 0 4.08 0 0 Z " fill="#459D4A" transform="translate(372,212)"/>
<path d="M0 0 C3.96 0 7.92 0 12 0 C13.23076923 5.41538462 13.23076923 5.41538462 12.0625 8.375 C11.711875 8.91125 11.36125 9.4475 11 10 C11 7.36 11 4.72 11 2 C9.02 2.33 7.04 2.66 5 3 C5 2.34 5 1.68 5 1 C3.02 1.33 1.04 1.66 -1 2 C-0.67 1.34 -0.34 0.68 0 0 Z " fill="#57A95A" transform="translate(290,209)"/>
<path d="M0 0 C0.5775 0.165 1.155 0.33 1.75 0.5 C4.26664369 1.14462031 4.26664369 1.14462031 8 1 C7.4375 2.9375 7.4375 2.9375 6 5 C2.375 5.75 2.375 5.75 -1 6 C-1.33 5.34 -1.66 4.68 -2 4 C-1.34 3.34 -0.68 2.68 0 2 C0 1.34 0 0.68 0 0 Z " fill="#386B40" transform="translate(289,218)"/>
<path d="M0 0 C0.99 0 1.98 0 3 0 C3.33 1.32 3.66 2.64 4 4 C4.99 4 5.98 4 7 4 C7.33 6.31 7.66 8.62 8 11 C7.01 11.495 7.01 11.495 6 12 C4.02 8.04 2.04 4.08 0 0 Z " fill="#30617F" transform="translate(268,151)"/>
<path d="M0 0 C4 0 4 0 5.8515625 1.609375 C6.72941406 2.66898438 6.72941406 2.66898438 7.625 3.75 C8.21539062 4.44609375 8.80578125 5.1421875 9.4140625 5.859375 C10.88535946 7.84526351 11.97899762 9.75581655 13 12 C12.01 12 11.02 12 10 12 C10 11.34 10 10.68 10 10 C9.34 10 8.68 10 8 10 C3 4.64285714 3 4.64285714 3 1 C2.01 0.67 1.02 0.34 0 0 Z " fill="#335A75" transform="translate(381,154)"/>
<path d="M0 0 C0.99 0.66 1.98 1.32 3 2 C1.02 4.31 -0.96 6.62 -3 9 C-3.66 8.67 -4.32 8.34 -5 8 C-5 6.35 -5 4.7 -5 3 C-4.01 3 -3.02 3 -2 3 C-2 2.34 -2 1.68 -2 1 C-1.34 0.67 -0.68 0.34 0 0 Z " fill="#519D5C" transform="translate(299,78)"/>
<path d="M0 0 C0.99 0 1.98 0 3 0 C3 3.63 3 7.26 3 11 C1.68 10.01 0.36 9.02 -1 8 C-1.3125 4.375 -1.3125 4.375 -1 1 C-0.67 0.67 -0.34 0.34 0 0 Z " fill="#3C8AA8" transform="translate(340,233)"/>
<path d="M0 0 C0.66 0.33 1.32 0.66 2 1 C3.15941038 4.47823115 2.70820884 6.45895578 2 10 C1.67 10 1.34 10 1 10 C1 7.69 1 5.38 1 3 C-1.4294516 6.6441774 -1.16179575 8.71241272 -1 13 C-3 11 -3 11 -3.3125 7.625 C-2.99258956 3.9140389 -2.5224581 2.62756052 0 0 Z " fill="#296177" transform="translate(359,236)"/>
<path d="M0 0 C1.98 0 3.96 0 6 0 C6.66 1.32 7.32 2.64 8 4 C6.02 4.99 6.02 4.99 4 6 C3.67 5.01 3.34 4.02 3 3 C0.98491642 2.26676204 0.98491642 2.26676204 -1 2 C-0.67 1.34 -0.34 0.68 0 0 Z " fill="#488E4A" transform="translate(277,201)"/>
<path d="M0 0 C1.32 0.33 2.64 0.66 4 1 C3.75 2.875 3.75 2.875 3 5 C0.9375 6.25 0.9375 6.25 -1 7 C-1 6.34 -1 5.68 -1 5 C-1.99 5 -2.98 5 -4 5 C-3.67 4.01 -3.34 3.02 -3 2 C-2.34 2 -1.68 2 -1 2 C-0.67 1.34 -0.34 0.68 0 0 Z " fill="#35803B" transform="translate(386,209)"/>
<path d="M0 0 C2.0625 0.4375 2.0625 0.4375 4 1 C3.67 2.65 3.34 4.3 3 6 C1.35 5.67 -0.3 5.34 -2 5 C-1.125 1.125 -1.125 1.125 0 0 Z " fill="#366D7F" transform="translate(397,244)"/>
<path d="M0 0 C0.66 0 1.32 0 2 0 C3.0625 2.375 3.0625 2.375 4 5 C3.67 5.66 3.34 6.32 3 7 C3.33 7.99 3.66 8.98 4 10 C3.34 10 2.68 10 2 10 C-2 4.58823529 -2 4.58823529 -2 2 C-1.34 2 -0.68 2 0 2 C0 1.34 0 0.68 0 0 Z " fill="#5FD274" transform="translate(380,76)"/>
<path d="M0 0 C0.99 0 1.98 0 3 0 C3 0.99 3 1.98 3 3 C6.3 3.66 9.6 4.32 13 5 C9 8 9 8 6 8 C5.67 7.01 5.34 6.02 5 5 C2.98491642 4.26676204 2.98491642 4.26676204 1 4 C0.67 2.68 0.34 1.36 0 0 Z " fill="#4C98B3" transform="translate(289,245)"/>
<path d="M0 0 C0.66 0 1.32 0 2 0 C2 4.95 2 9.9 2 15 C1.67 15 1.34 15 1 15 C0.67 13.02 0.34 11.04 0 9 C-0.66 9 -1.32 9 -2 9 C-2 9.66 -2 10.32 -2 11 C-2.66 11 -3.32 11 -4 11 C-3.34 9.35 -2.68 7.7 -2 6 C-1.01 6 -0.02 6 1 6 C0.67 4.02 0.34 2.04 0 0 Z " fill="#25485A" transform="translate(380,239)"/>
<path d="M0 0 C-0.28875 0.556875 -0.5775 1.11375 -0.875 1.6875 C-2.0413253 4.08494645 -3.0339881 6.51596939 -4 9 C-5.32 8.34 -6.64 7.68 -8 7 C-7.67 5.68 -7.34 4.36 -7 3 C-6.34 3.33 -5.68 3.66 -5 4 C-4.67 3.01 -4.34 2.02 -4 1 C-2 0 -2 0 0 0 Z " fill="#439F4A" transform="translate(338,206)"/>
<path d="M0 0 C1.32 0 2.64 0 4 0 C4.28875 0.804375 4.5775 1.60875 4.875 2.4375 C5.73262568 5.1326468 5.73262568 5.1326468 8 6 C8.72159424 7.64363134 9.39351421 9.31050386 10 11 C9.278125 10.2575 8.55625 9.515 7.8125 8.75 C5.09288953 5.98732731 5.09288953 5.98732731 2.1875 3.8125 C1.465625 3.214375 0.74375 2.61625 0 2 C0 1.34 0 0.68 0 0 Z " fill="#4D8B58" transform="translate(372,75)"/>
<path d="M0 0 C0 3.39593478 -0.52165948 4.06619881 -2.5 6.6875 C-2.9640625 7.31011719 -3.428125 7.93273437 -3.90625 8.57421875 C-4.2671875 9.04472656 -4.628125 9.51523438 -5 10 C-6.32 9.34 -7.64 8.68 -9 8 C-3.85714286 1.42857143 -3.85714286 1.42857143 0 0 Z " fill="#61A36A" transform="translate(292,58)"/>
<path d="M0 0 C6.74193548 2.48387097 6.74193548 2.48387097 8 5 C5.36 5 2.72 5 0 5 C-0.66 3.68 -1.32 2.36 -2 1 C-1.34 0.67 -0.68 0.34 0 0 Z " fill="#4C8BA0" transform="translate(343,245)"/>
<path d="M0 0 C1.98 0.99 1.98 0.99 4 2 C4.125 7.75 4.125 7.75 3 10 C2.01 9.67 1.02 9.34 0 9 C0 6.03 0 3.06 0 0 Z " fill="#3A879C" transform="translate(325,237)"/>
<path d="M0 0 C3 3.75 3 3.75 3 6 C2.01 6 1.02 6 0 6 C0 6.66 0 7.32 0 8 C-0.99 8.33 -1.98 8.66 -3 9 C-2.67 6.69 -2.34 4.38 -2 2 C-1.34 2 -0.68 2 0 2 C0 1.34 0 0.68 0 0 Z " fill="#488BA0" transform="translate(282,232)"/>
<path d="M0 0 C2.00720923 0.28674418 4.0085944 0.61866701 6 1 C6 2.65 6 4.3 6 6 C3.0625 5.1875 3.0625 5.1875 0 4 C-0.33 3.01 -0.66 2.02 -1 1 C-0.67 0.67 -0.34 0.34 0 0 Z " fill="#1F5DA8" transform="translate(306,185)"/>
<path d="M0 0 C1.22589844 0.01353516 1.22589844 0.01353516 2.4765625 0.02734375 C3.41628906 0.04474609 3.41628906 0.04474609 4.375 0.0625 C4.375 0.3925 4.375 0.7225 4.375 1.0625 C2.065 1.0625 -0.245 1.0625 -2.625 1.0625 C-2.109375 1.59875 -1.59375 2.135 -1.0625 2.6875 C0.375 5.0625 0.375 5.0625 0.0625 8.3125 C-0.164375 9.22 -0.39125 10.1275 -0.625 11.0625 C-0.955 11.0625 -1.285 11.0625 -1.625 11.0625 C-1.625 9.0825 -1.625 7.1025 -1.625 5.0625 C-2.285 5.0625 -2.945 5.0625 -3.625 5.0625 C-5.25 3.0625 -5.25 3.0625 -6.625 1.0625 C-4.21954362 -0.14022819 -2.67503047 -0.03821472 0 0 Z " fill="#246678" transform="translate(376.625,235.9375)"/>
<path d="M0 0 C1.32 0 2.64 0 4 0 C3.814375 0.86625 3.62875 1.7325 3.4375 2.625 C2.99332067 6.05152628 3.28045508 8.64212371 4 12 C3.01 11.67 2.02 11.34 1 11 C0.67 7.37 0.34 3.74 0 0 Z " fill="#4F9DB8" transform="translate(310,237)"/>
<path d="M0 0 C0.66 0.33 1.32 0.66 2 1 C1.2884375 1.804375 1.2884375 1.804375 0.5625 2.625 C-1.28186076 5.42842836 -1.62456847 7.69620258 -2 11 C-2.66 10.67 -3.32 10.34 -4 10 C-4 7.36 -4 4.72 -4 2 C-2.125 0.9375 -2.125 0.9375 0 0 Z " fill="#38783B" transform="translate(356,206)"/>
<path d="M0 0 C2.625 -0.1875 2.625 -0.1875 5 0 C4.67 0.99 4.34 1.98 4 3 C3.34 3 2.68 3 2 3 C1.67 3.66 1.34 4.32 1 5 C1.99 5 2.98 5 4 5 C4 5.66 4 6.32 4 7 C2.35 6.67 0.7 6.34 -1 6 C-1.33 5.01 -1.66 4.02 -2 3 C-1.34 2.01 -0.68 1.02 0 0 Z " fill="#5CAC5F" transform="translate(381,209)"/>
<path d="M0 0 C1.98 0 3.96 0 6 0 C6 0.99 6 1.98 6 3 C3.29120665 4.35439668 0.99066732 4.06501451 -2 4 C-2 3.34 -2 2.68 -2 2 C-1.34 2 -0.68 2 0 2 C0 1.34 0 0.68 0 0 Z " fill="#75DB85" transform="translate(304,51)"/>
<path d="M0 0 C2.475 0.495 2.475 0.495 5 1 C5.33 2.32 5.66 3.64 6 5 C4.68 5.33 3.36 5.66 2 6 C2 5.34 2 4.68 2 4 C1.34 4 0.68 4 0 4 C0 2.68 0 1.36 0 0 Z " fill="#3A7288" transform="translate(287,239)"/>
<path d="M0 0 C1.32 0.99 2.64 1.98 4 3 C3.67 3.33 3.34 3.66 3 4 C2.76712992 5.68183948 2.58735834 7.3712416 2.4375 9.0625 C2.31181641 10.44115234 2.31181641 10.44115234 2.18359375 11.84765625 C2.12300781 12.55792969 2.06242187 13.26820313 2 14 C1.67 14 1.34 14 1 14 C1 10.37 1 6.74 1 3 C-0.32 3.33 -1.64 3.66 -3 4 C-2.67 3.01 -2.34 2.02 -2 1 C-1.34 0.67 -0.68 0.34 0 0 Z " fill="#1B535F" transform="translate(342,230)"/>
<path d="M0 0 C0.99 0 1.98 0 3 0 C3 1.98 3 3.96 3 6 C1.35 6 -0.3 6 -2 6 C-1.49396008 3.83125748 -1.00016187 2.00032373 0 0 Z " fill="#1F7E9D" transform="translate(282,137)"/>
<path d="M0 0 C1.65 0 3.3 0 5 0 C5.33 1.65 5.66 3.3 6 5 C4.34385343 5.38218767 2.67542976 5.71395102 1 6 C0 5 0 5 -0.0625 2.4375 C-0.041875 1.633125 -0.02125 0.82875 0 0 Z M1 1 C2 5 2 5 2 5 Z " fill="#1E6880" transform="translate(298,239)"/>
<path d="M0 0 C1.4540625 0.0309375 1.4540625 0.0309375 2.9375 0.0625 C3.5975 1.3825 4.2575 2.7025 4.9375 4.0625 C-1.8125 3.3125 -1.8125 3.3125 -4.0625 1.0625 C-3.0625 0.0625 -3.0625 0.0625 0 0 Z " fill="#447C91" transform="translate(364.0625,235.9375)"/>
<path d="M0 0 C2.18975773 3.28463659 2.99806563 6.20696275 4 10 C3.34 10 2.68 10 2 10 C1.67 10.66 1.34 11.32 1 12 C0.03929566 9.11788698 -0.10581883 7.30149956 -0.0625 4.3125 C-0.05347656 3.50425781 -0.04445313 2.69601563 -0.03515625 1.86328125 C-0.02355469 1.24839844 -0.01195312 0.63351563 0 0 Z " fill="#266070" transform="translate(263,129)"/>
<path d="M0 0 C1.9375 0.625 1.9375 0.625 4 2 C4.75 5.125 4.75 5.125 5 8 C4.01 8 3.02 8 2 8 C0.23537317 4.91190305 0 3.76687864 0 0 Z " fill="#329094" transform="translate(272,102)"/>
<path d="M0 0 C0.66 0 1.32 0 2 0 C2 0.66 2 1.32 2 2 C4.64 1.67 7.28 1.34 10 1 C9 2.5625 9 2.5625 7 4 C4.23385218 3.96726452 1.73969453 3.49404328 -1 3 C-0.67 2.01 -0.34 1.02 0 0 Z " fill="#72CA80" transform="translate(350,63)"/>
<path d="M0 0 C1.37432457 3.81756824 0.67975039 7.07255329 0 11 C-0.99 11 -1.98 11 -3 11 C-3 10.01 -3 9.02 -3 8 C-2.34 8 -1.68 8 -1 8 C-1.20625 7.236875 -1.4125 6.47375 -1.625 5.6875 C-2 3 -2 3 0 0 Z " fill="#305B6C" transform="translate(295,237)"/>
<path d="M0 0 C0 3 0 3 -2 6 C-2.66 6 -3.32 6 -4 6 C-4 6.66 -4 7.32 -4 8 C-5.65 8.33 -7.3 8.66 -9 9 C-6 6 -3 3 0 0 Z " fill="#2B516B" transform="translate(376,159)"/>
<path d="M0 0 C0.66 0.33 1.32 0.66 2 1 C1.67 2.32 1.34 3.64 1 5 C0.34 5 -0.32 5 -1 5 C-1.66 6.98 -2.32 8.96 -3 11 C-3.33 11 -3.66 11 -4 11 C-4.56638908 6.18569279 -2.82561627 3.79692186 0 0 Z " fill="#539B60" transform="translate(292,87)"/>
<path d="M0 0 C0.99 1.32 1.98 2.64 3 4 C2.09021715 7.82108796 1.32708333 8.78194445 -2 11 C-1.34 7.37 -0.68 3.74 0 0 Z " fill="#539861" transform="translate(405,81)"/>
<path d="M0 0 C0.268125 0.598125 0.53625 1.19625 0.8125 1.8125 C1.8893979 4.04327908 1.8893979 4.04327908 3.625 5.625 C4.07875 6.07875 4.5325 6.5325 5 7 C5 7.66 5 8.32 5 9 C3.35 9 1.7 9 0 9 C-1.15941038 5.52176885 -0.70820884 3.54104422 0 0 Z " fill="#4C92B3" transform="translate(320,241)"/>
<path d="M0 0 C0 0.99 0 1.98 0 3 C-1.98 3.33 -3.96 3.66 -6 4 C-6.33 3.01 -6.66 2.02 -7 1 C-4.53721199 -0.231394 -2.7204945 -0.07159196 0 0 Z " fill="#487C4B" transform="translate(322,220)"/>
<path d="M0 0 C0.33 0.99 0.66 1.98 1 3 C-1.3431213 2.74438677 -3.67843403 2.40729228 -6 2 C-6.33 1.34 -6.66 0.68 -7 0 C-4.3333581 -1.33332095 -2.83319697 -0.67102033 0 0 Z " fill="#326D32" transform="translate(385,221)"/>
<path d="M0 0 C1.99097846 2.98646769 2.94124926 5.59687262 4 9 C3.01 9 2.02 9 1 9 C-0.61949011 6.42786866 -1.04408751 5.32330841 -0.625 2.25 C-0.41875 1.5075 -0.2125 0.765 0 0 Z " fill="#47A947" transform="translate(328,212)"/>
<path d="M0 0 C0.99 0.33 1.98 0.66 3 1 C3.33 1.99 3.66 2.98 4 4 C3.34 4.66 2.68 5.32 2 6 C1.01 6 0.02 6 -1 6 C-1.042721 4.33388095 -1.04063832 2.66617115 -1 1 C-0.67 0.67 -0.34 0.34 0 0 Z " fill="#45814E" transform="translate(373,201)"/>
<path d="M0 0 C2.64 0 5.28 0 8 0 C8 0.66 8 1.32 8 2 C6.25 3.125 6.25 3.125 4 4 C1.75 3.125 1.75 3.125 0 2 C0 1.34 0 0.68 0 0 Z " fill="#80D38F" transform="translate(321,44)"/>
<path d="M0 0 C2 0.125 2 0.125 4 1 C5.25 3.0625 5.25 3.0625 6 5 C3 5 3 5 0 4 C-0.66 3.34 -1.32 2.68 -2 2 C-1.34 1.34 -0.68 0.68 0 0 Z " fill="#25657D" transform="translate(301,249)"/>
<path d="M0 0 C2.64 0.33 5.28 0.66 8 1 C8 1.99 8 2.98 8 4 C5.69 3.67 3.38 3.34 1 3 C0.67 2.01 0.34 1.02 0 0 Z " fill="#46894E" transform="translate(341,219)"/>
<path d="M0 0 C0.99 0 1.98 0 3 0 C2.67 3.3 2.34 6.6 2 10 C0.35835645 6.7167129 -0.52087355 4.54553576 -1 1 C-0.67 0.67 -0.34 0.34 0 0 Z " fill="#48A74E" transform="translate(315,209)"/>
<path d="M0 0 C0.33 0 0.66 0 1 0 C1 3.63 1 7.26 1 11 C0.67 9.68 0.34 8.36 0 7 C-0.99 6.67 -1.98 6.34 -3 6 C-1.125 1.125 -1.125 1.125 0 0 Z " fill="#1CB338" transform="translate(347,136)"/>
<path d="M0 0 C0.66 0 1.32 0 2 0 C2 0.66 2 1.32 2 2 C3.65 2.33 5.3 2.66 7 3 C6.67 3.99 6.34 4.98 6 6 C5.01 6 4.02 6 3 6 C2.01 4.02 1.02 2.04 0 0 Z " fill="#499F57" transform="translate(382,86)"/>
<path d="M0 0 C0.66 0.33 1.32 0.66 2 1 C1.34 2.65 0.68 4.3 0 6 C-1.65 5.67 -3.3 5.34 -5 5 C-3.35 3.35 -1.7 1.7 0 0 Z " fill="#6CD67D" transform="translate(295,58)"/>
<path d="M0 0 C1.32 0 2.64 0 4 0 C4 1.32 4 2.64 4 4 C2.35 4.66 0.7 5.32 -1 6 C-0.67 4.02 -0.34 2.04 0 0 Z " fill="#428746" transform="translate(372,209)"/>
<path d="M0 0 C0.66 0 1.32 0 2 0 C3.35439668 2.70879335 3.06501451 5.00933268 3 8 C2.34 8 1.68 8 1 8 C-0.35439668 5.29120665 -0.06501451 2.99066732 0 0 Z " fill="#38748D" transform="translate(265,139)"/>
<path d="M0 0 C-1.5625 1.5625 -1.5625 1.5625 -4 3 C-7.75 2.6875 -7.75 2.6875 -11 2 C-7.374967 -1.625033 -4.81746234 -1.01907857 0 0 Z " fill="#6FB678" transform="translate(315,49)"/>
<path d="M0 0 C0.66 0 1.32 0 2 0 C2 2.97 2 5.94 2 9 C1.01 8.01 0.02 7.02 -1 6 C-0.6875 2.8125 -0.6875 2.8125 0 0 Z " fill="#2F82A9" transform="translate(358,239)"/>
<path d="M0 0 C2.475 0.495 2.475 0.495 5 1 C5.33 2.32 5.66 3.64 6 5 C5.01 5 4.02 5 3 5 C3 4.34 3 3.68 3 3 C2.01 2.67 1.02 2.34 0 2 C0 1.34 0 0.68 0 0 Z " fill="#40889D" transform="translate(374,237)"/>
<path d="M0 0 C1.32 0 2.64 0 4 0 C3.67 1.98 3.34 3.96 3 6 C2.01 6.33 1.02 6.66 0 7 C0 4.69 0 2.38 0 0 Z " fill="#56AD56" transform="translate(405,213)"/>
<path d="M0 0 C0.66 0.33 1.32 0.66 2 1 C2 2.98 2 4.96 2 7 C0.68 7 -0.64 7 -2 7 C-2.33 5.68 -2.66 4.36 -3 3 C-2.34 3 -1.68 3 -1 3 C-1 3.66 -1 4.32 -1 5 C-0.34 5 0.32 5 1 5 C0.67 3.35 0.34 1.7 0 0 Z " fill="#284C2A" transform="translate(369,201)"/>
<path d="M0 0 C2.25245881 2.68841859 3.88213958 4.64641875 5 8 C3.68 7.67 2.36 7.34 1 7 C0.67 4.69 0.34 2.38 0 0 Z " fill="#2C6173" transform="translate(288,142)"/>
<path d="M0 0 C0.99 0.33 1.98 0.66 3 1 C1.35 2.98 -0.3 4.96 -2 7 C-2.33 6.34 -2.66 5.68 -3 5 C-3.66 4.67 -4.32 4.34 -5 4 C-2.6875 1.9375 -2.6875 1.9375 0 0 Z " fill="#479055" transform="translate(397,95)"/>
<path d="M0 0 C0.33 0.66 0.66 1.32 1 2 C3.01669827 3.13350534 3.01669827 3.13350534 5 4 C1.23375329 5.25541557 -0.37188934 4.37061958 -4 3 C-4 2.34 -4 1.68 -4 1 C-2 0 -2 0 0 0 Z " fill="#7BD88E" transform="translate(378,53)"/>
<path d="M0 0 C0.33 0.99 0.66 1.98 1 3 C2.65 3 4.3 3 6 3 C4.1875 4.5625 4.1875 4.5625 2 6 C1.01 5.67 0.02 5.34 -1 5 C-0.67 3.35 -0.34 1.7 0 0 Z " fill="#356673" transform="translate(294,250)"/>
<path d="M0 0 C0.20625 0.639375 0.4125 1.27875 0.625 1.9375 C1.89538209 4.34925077 1.89538209 4.34925077 5.125 4.75 C6.07375 4.8325 7.0225 4.915 8 5 C8 5.33 8 5.66 8 6 C5.03 6 2.06 6 -1 6 C-0.67 4.02 -0.34 2.04 0 0 Z " fill="#457C92" transform="translate(286,244)"/>
<path d="M0 0 C0.33 0 0.66 0 1 0 C1 2.31 1 4.62 1 7 C1.99 6.67 2.98 6.34 4 6 C4 6.99 4 7.98 4 9 C2.68 9.33 1.36 9.66 0 10 C0 6.7 0 3.4 0 0 Z " fill="#3C7A43" transform="translate(298,214)"/>
<path d="M0 0 C0.598125 0.350625 1.19625 0.70125 1.8125 1.0625 C1.8125 1.7225 1.8125 2.3825 1.8125 3.0625 C-0.4975 2.7325 -2.8075 2.4025 -5.1875 2.0625 C-5.1875 1.4025 -5.1875 0.7425 -5.1875 0.0625 C-2.1875 -0.9375 -2.1875 -0.9375 0 0 Z " fill="#549D55" transform="translate(406.1875,208.9375)"/>
<path d="M0 0 C1.32 0.33 2.64 0.66 4 1 C3.34 2.98 2.68 4.96 2 7 C1.34 7 0.68 7 0 7 C0 4.69 0 2.38 0 0 Z " fill="#40783F" transform="translate(263,201)"/>
<path d="M0 0 C0.33 0.66 0.66 1.32 1 2 C2.32 2 3.64 2 5 2 C5 2.66 5 3.32 5 4 C2.69 4 0.38 4 -2 4 C-1 1 -1 1 0 0 Z " fill="#4B889D" transform="translate(360,246)"/>
<path d="M0 0 C2.97 0 5.94 0 9 0 C6.08235 1.9451 4.37462715 2.45276317 1 3 C0.67 2.01 0.34 1.02 0 0 Z " fill="#538796" transform="translate(343,229)"/>
<path d="M0 0 C1.73662334 3.22515763 2.8905928 6.51329166 4 10 C3.01 9.67 2.02 9.34 1 9 C-0.4783226 6.04335481 -0.06032783 3.25770263 0 0 Z " fill="#1F4B20" transform="translate(326,213)"/>
<path d="M0 0 C1.98 0 3.96 0 6 0 C6 1.32 6 2.64 6 4 C5.01 4 4.02 4 3 4 C3 3.01 3 2.02 3 1 C2.01 0.67 1.02 0.34 0 0 Z " fill="#3A6A3D" transform="translate(340,209)"/>
<path d="M0 0 C1.65 1.65 3.3 3.3 5 5 C4.34 6.32 3.68 7.64 3 9 C0 3.375 0 3.375 0 0 Z " fill="#2D5476" transform="translate(297,155)"/>
<path d="M0 0 C1.98 0.99 1.98 0.99 4 2 C3.67 3.32 3.34 4.64 3 6 C2.01 5.67 1.02 5.34 0 5 C0 3.35 0 1.7 0 0 Z " fill="#347496" transform="translate(293,152)"/>
<path d="M0 0 C3 1 3 1 4.1875 3.0625 C4.455625 3.701875 4.72375 4.34125 5 5 C3.35 4.67 1.7 4.34 0 4 C-0.33 4.66 -0.66 5.32 -1 6 C-0.67 4.02 -0.34 2.04 0 0 Z " fill="#5BA466" transform="translate(396,69)"/>
<path d="" fill="#000000" transform="translate(0,0)"/>
</svg>
